<svg data-v-423bf9ae="" xmlns="http://www.w3.org/2000/svg" viewBox="0 0 182.14287132285537 60" class="font"><!----><!----><!----><g data-v-423bf9ae="" id="ac6736fa-8c36-4b24-9905-7317eac69249" fill="#d34029" transform="matrix(6.122449456230433,0,0,6.122449456230433,4.346936448048837,-11.816328097660907)"><path d="M0.85 6.77L0.85 1.94L5.68 1.94L5.68 3.54L5.68 3.54Q5.68 3.58 5.65 3.58L5.65 3.58L2.78 3.58L2.78 5.70L5.35 5.70L5.35 5.71L5.35 5.71Q5.35 5.81 5.32 6.75L5.32 6.75L5.32 6.75Q5.30 6.75 5.30 6.77L5.30 6.77L5.42 6.77L5.42 7.27L3.19 7.27L3.19 9.28L2.60 9.28L2.60 9.47L3.19 9.47L3.19 10.08L5.71 10.08L5.71 10.32L5.52 10.32L5.52 11.52L2.50 11.52L2.50 11.73L1.07 11.73L1.07 8.22L0.85 8.22L0.85 6.99L-0.71 6.99L-0.71 6.77L0.85 6.77ZM1.67 6.77L0.87 6.77L0.87 6.99L1.67 6.99L1.67 6.77ZM3.34 10.04L3.34 9.59L3.46 9.59L3.46 9.75L3.47 9.75L3.47 9.75Q3.47 9.71 3.62 9.59L3.62 9.59L3.74 9.59L3.58 9.77L3.75 10.04L3.64 10.04L3.64 10.04Q3.51 9.85 3.49 9.85L3.49 9.85L3.49 9.85Q3.46 9.86 3.46 9.88L3.46 9.88L3.46 10.04L3.34 10.04ZM3.92 10.04L3.92 9.59L4.15 9.59L4.15 9.59Q4.26 9.59 4.30 9.72L4.30 9.72L4.30 9.72Q4.30 9.74 4.23 9.84L4.23 9.84L4.23 9.84Q4.28 9.84 4.30 10.04L4.30 10.04L4.22 10.04L4.22 10.04Q4.18 10.04 4.16 9.87L4.16 9.87L4.03 9.87L4.03 10.04L3.92 10.04ZM4.66 9.59L4.66 9.59L4.72 9.59L4.72 9.59Q4.87 9.59 4.91 9.79L4.91 9.79L4.91 9.85L4.91 9.85Q4.91 9.91 4.86 9.97L4.86 9.97L4.86 9.99L4.86 9.99Q4.91 9.99 4.91 10.01L4.91 10.01L4.91 10.01Q4.91 10.04 4.86 10.07L4.86 10.07L4.86 10.07Q4.83 10.07 4.81 10.01L4.81 10.01L4.72 10.04L4.66 10.04L4.66 10.04Q4.50 10.04 4.48 9.79L4.48 9.79L4.48 9.79Q4.53 9.59 4.66 9.59ZM4.59 9.79L4.59 9.79L4.59 9.84L4.59 9.84Q4.59 9.95 4.71 9.95L4.71 9.95L4.72 9.95L4.72 9.93L4.70 9.93L4.70 9.92L4.70 9.92Q4.70 9.89 4.74 9.87L4.74 9.87L4.79 9.90L4.79 9.90Q4.79 9.89 4.81 9.80L4.81 9.80L4.81 9.80Q4.80 9.67 4.68 9.67L4.68 9.67L4.68 9.67Q4.59 9.69 4.59 9.79ZM4.15 9.69L4.03 9.69L4.03 9.79L4.15 9.79L4.15 9.79Q4.18 9.79 4.18 9.75L4.18 9.75L4.18 9.72L4.18 9.72Q4.18 9.69 4.15 9.69L4.15 9.69ZM5.62 10.51L5.62 10.41L5.71 10.41L5.71 10.43L5.71 10.43Q5.71 10.73 5.67 10.73L5.67 10.73L5.67 10.73Q5.62 10.73 5.62 10.51L5.62 10.51ZM5.62 10.84L5.62 10.74L5.71 10.74L5.71 10.84L5.62 10.84ZM6.21 7.27L6.21 1.95L8.73 1.95L8.73 1.95Q10.94 1.95 11.56 3.09L11.56 3.09L11.56 3.09Q11.92 3.81 11.92 4.93L11.92 4.93L11.92 4.93Q11.90 5.13 11.90 5.33L11.90 5.33L13.30 5.33L13.30 5.80L11.85 5.80L11.85 5.79L11.85 5.79Q11.89 5.37 11.89 5.33L11.89 5.33L11.07 5.33L11.07 5.80L11.85 5.80L11.85 7.46L10.24 7.46L10.24 8.04L10.23 8.04L10.23 8.04Q8.36 8.05 8.11 8.05L8.11 8.05L8.11 8.91L7.77 8.91L7.77 10.45L7.96 10.45L7.96 11.73L6.43 11.73L6.43 11.13L6.22 11.13L6.22 10.62L6.22 10.62Q6.22 9.75 6.21 7.77L6.21 7.77L7.14 7.77L7.14 7.27L6.21 7.27ZM8.94 3.61L8.11 3.61L8.11 6.39L8.70 6.39L8.70 5.99L9.85 5.99L9.85 5.99Q10.08 5.78 10.08 4.80L10.08 4.80L10.08 4.80Q10.08 3.86 9.66 3.73L9.66 3.73L9.66 3.73Q9.50 3.61 8.94 3.61L8.94 3.61ZM11.94 5.92L11.97 5.91L12.02 5.91L12.02 5.91Q12.10 5.97 12.10 6.04L12.10 6.04L12.21 5.91L12.28 5.91L12.28 5.93L12.28 5.93Q12.15 6.11 12.15 6.28L12.15 6.28L12.10 6.28L12.10 6.28Q12.07 6.28 12.05 6.08L12.05 6.08L12.05 6.08Q12.02 6.08 11.94 5.92L11.94 5.92ZM11.95 6.47L11.95 6.39L12.24 6.39L12.24 6.47L12.15 6.47L12.15 6.73L12.15 6.73Q12.15 6.77 12.11 6.77L12.11 6.77L12.08 6.77L12.08 6.77Q12.05 6.77 12.05 6.73L12.05 6.73L12.05 6.47L11.95 6.47ZM12.85 3.57L12.85 1.93L18.59 1.93L18.59 3.57L16.69 3.57L16.69 10.34L17.55 10.34L17.55 10.54L16.69 10.54L16.69 11.29L16.18 11.29L16.18 11.55L16.54 11.55L16.54 11.73L14.80 11.73L14.80 11.73Q14.77 11.73 14.77 11.70L14.77 11.70L14.77 3.57L12.85 3.57ZM16.68 10.34L16.02 10.34L16.02 10.54L16.68 10.54L16.68 10.34ZM18.73 1.93L18.73 1.93L20.58 1.93L20.58 1.93Q20.60 1.94 20.60 1.97L20.60 1.97L20.60 6.73L20.60 6.73Q20.60 6.76 20.58 6.76L20.58 6.76L20.36 6.76L20.36 11.70L20.36 11.70Q20.36 11.73 20.32 11.73L20.32 11.73L18.73 11.73L18.73 11.73Q18.70 11.73 18.70 11.70L18.70 11.70L18.70 6.64L18.20 6.64L18.20 6.64Q18.17 6.64 18.17 6.61L18.17 6.61L18.17 6.40L18.17 6.40Q18.18 6.36 18.20 6.36L18.20 6.36L18.70 6.36L18.70 1.97L18.70 1.97Q18.70 1.93 18.73 1.93ZM19.65 6.36L18.71 6.36L18.71 6.64L19.65 6.64L19.65 6.36ZM24.73 1.93L24.73 1.93L24.73 1.93Q26.78 1.93 27.31 3.21L27.31 3.21L27.31 3.21Q27.46 3.53 27.46 3.63L27.46 3.63L26.60 3.63L26.60 3.89L27.52 3.89L27.52 3.88L27.52 3.88Q27.52 3.81 27.46 3.63L27.46 3.63L29.04 3.63L29.04 3.89L27.54 3.89L27.54 3.91L27.54 3.91Q27.66 4.46 27.71 5.09L27.71 5.09L27.71 5.09Q27.71 5.13 25.91 5.22L25.91 5.22L25.91 5.21L25.91 5.21Q25.91 3.58 24.79 3.58L24.79 3.58L24.60 3.58L24.60 3.58Q23.75 3.58 23.57 4.29L23.57 4.29L23.57 4.29Q23.42 4.89 23.42 5.87L23.42 5.87L23.42 7.20L23.41 7.40L22.78 7.40L22.78 7.71L23.41 7.71L23.41 10.08L26.04 10.08L26.04 7.62L27.56 7.62L27.56 10.08L26.71 10.08L26.71 11.60L24.96 11.60L24.96 11.73L23.59 11.73L23.59 11.60L22.20 11.60L22.20 10.84L23.13 10.84L23.13 10.51L21.75 10.51L21.75 9.39L21.15 9.39L21.15 8.01L21.46 8.01L21.46 8.01Q21.44 7.15 21.44 6.66L21.44 6.66L21.44 6.66Q21.44 4.42 21.66 3.84L21.66 3.84L21.66 3.84Q21.86 3.17 22.32 2.69L22.32 2.69L22.32 2.69Q23.13 1.93 24.73 1.93ZM23.54 9.59L23.54 9.59L23.62 9.59L23.62 9.93L23.82 9.93L23.82 10.04L23.54 10.04L23.54 10.04Q23.51 10.04 23.51 10.00L23.51 10.00L23.51 9.63L23.51 9.63Q23.51 9.59 23.54 9.59ZM25.59 9.60L25.59 9.59L25.70 9.59L25.70 9.59Q25.78 9.66 25.78 9.72L25.78 9.72L25.78 9.72Q25.79 9.72 25.89 9.59L25.89 9.59L25.98 9.59L25.98 9.63L25.98 9.63Q25.86 9.78 25.86 9.84L25.86 9.84L25.86 9.84Q25.88 9.84 25.99 10.01L25.99 10.01L25.99 10.04L25.89 10.04L25.78 9.91L25.78 9.91Q25.72 10.02 25.68 10.04L25.68 10.04L25.58 10.04L25.58 10.04Q25.61 9.97 25.73 9.80L25.73 9.80L25.59 9.60ZM26.95 10.19L26.95 10.19L26.95 10.19Q27.11 10.23 27.11 10.28L27.11 10.28L27.11 10.35L27.04 10.35L26.98 10.28L26.91 10.28L26.91 10.28Q26.88 10.29 26.88 10.32L26.88 10.32L26.88 10.35L26.88 10.35Q27.13 10.40 27.13 10.46L27.13 10.46L27.13 10.51L27.13 10.51Q27.13 10.64 26.98 10.64L26.98 10.64L26.91 10.64L26.91 10.64Q26.82 10.64 26.77 10.55L26.77 10.55L26.77 10.48L26.87 10.48L26.87 10.48Q26.87 10.56 26.96 10.56L26.96 10.56L26.98 10.56L26.98 10.56Q27.00 10.56 27.03 10.51L27.03 10.51L27.03 10.51Q27.03 10.49 26.80 10.40L26.80 10.40L26.78 10.36L26.78 10.28L26.78 10.28Q26.78 10.23 26.95 10.19Z"/></g><!----><!----></svg>